HIERARCHY
ROOT Hips
{
	OFFSET 0.000000 0.000000 0.000000
	CHANNELS 6 Xposition Yposition Zposition Yrotation Xrotation Zrotation
	JOINT Chest
	{
		OFFSET 0.000000 -0.009281 11.569106
		CHANNELS 3 Yrotation Xrotation Zrotation
		JOINT Chest2
		{
			OFFSET -0.000000 0.016865 9.269641
			CHANNELS 3 Yrotation Xrotation Zrotation
			JOINT Chest3
			{
				OFFSET -0.000000 0.000001 8.374491
				CHANNELS 3 Yrotation Xrotation Zrotation
				JOINT Chest4
				{
					OFFSET -0.000000 0.000001 8.374493
					CHANNELS 3 Yrotation Xrotation Zrotation
					JOINT Neck
					{
						OFFSET -0.000000 0.000002 12.152554
						CHANNELS 3 Yrotation Xrotation Zrotation
						JOINT Head
						{
							OFFSET -0.000000 0.040101 7.802319
							CHANNELS 3 Yrotation Xrotation Zrotation
							End Site
							{
								OFFSET -0.000000 0.020947 14.853096
							}
						}
					}
					JOINT RightCollar
					{
						OFFSET 2.894404 0.000001 6.791374
						CHANNELS 3 Yrotation Xrotation Zrotation
						JOINT RightShoulder
						{
							OFFSET 13.574684 0.000001 0.000000
							CHANNELS 3 Yrotation Xrotation Zrotation
							JOINT RightElbow
							{
								OFFSET 23.923903 0.000002 0.000000
								CHANNELS 3 Yrotation Xrotation Zrotation
								JOINT RightWrist
								{
									OFFSET 19.846718 0.012767 0.000000
									CHANNELS 3 Yrotation Xrotation Zrotation
									End Site
									{
										OFFSET 14.973145 0.000001 0.000000
									}
								}
							}
						}
					}
					JOINT LeftCollar
					{
						OFFSET -2.894404 0.000001 6.791374
						CHANNELS 3 Yrotation Xrotation Zrotation
						JOINT LeftShoulder
						{
							OFFSET -13.574684 -0.000001 0.000000
							CHANNELS 3 Yrotation Xrotation Zrotation
							JOINT LeftElbow
							{
								OFFSET -23.923903 -0.000002 0.000000
								CHANNELS 3 Yrotation Xrotation Zrotation
								JOINT LeftWrist
								{
									OFFSET -19.846718 0.012763 0.000000
									CHANNELS 3 Yrotation Xrotation Zrotation
									End Site
									{
										OFFSET -14.973145 -0.000001 0.000000
									}
								}
							}
						}
					}
				}
			}
		}
	}
	JOINT RightHip
	{
		OFFSET 9.469263 0.004643 0.045487
		CHANNELS 3 Yrotation Xrotation Zrotation
		JOINT RightKnee
		{
			OFFSET 0.000000 0.002661 -40.478676
			CHANNELS 3 Yrotation Xrotation Zrotation
			JOINT RightAnkle
			{
				OFFSET 0.000000 0.049106 -35.224068
				CHANNELS 3 Yrotation Xrotation Zrotation
				JOINT RightToe
				{
					OFFSET -0.000001 12.539529 -6.151390
					CHANNELS 3 Yrotation Xrotation Zrotation
					End Site
					{
						OFFSET -0.000001 5.044994 -1.291870
					}
				}
			}
		}
	}
	JOINT LeftHip
	{
		OFFSET -9.469263 0.004641 0.045487
		CHANNELS 3 Yrotation Xrotation Zrotation
		JOINT LeftKnee
		{
			OFFSET 0.000000 0.002661 -40.478676
			CHANNELS 3 Yrotation Xrotation Zrotation
			JOINT LeftAnkle
			{
				OFFSET 0.000000 0.049106 -35.224068
				CHANNELS 3 Yrotation Xrotation Zrotation
				JOINT LeftToe
				{
					OFFSET -0.000001 12.539529 -6.151390
					CHANNELS 3 Yrotation Xrotation Zrotation
					End Site
					{
						OFFSET -0.000001 5.044994 -1.291870
					}
				}
			}
		}
	}
}
MOTION
Frames: 9
Frame Time: 0.016667
-56.188328 58.142578 80.358910 -5.382516 0.091098 -105.758069 -1.932250 -4.483526 0.650152 -0.840852 -2.001042 0.268597 -0.840852 -2.001042 0.268596 -0.629694 -1.501154 0.198673 4.084782 -21.380527 -5.748357 5.746979 -3.444972 -9.240415 8.516917 4.614224 -3.252656 47.157907 -20.021542 -10.596746 7.181507 -54.013303 54.384336 -27.317690 38.601460 68.215941 -6.534240 3.218269 -5.763248 -43.119705 -7.418449 10.908632 -42.933466 -56.834680 -19.375741 18.056476 17.317718 -58.730263 0.715333 7.493367 -7.555886 10.568072 -27.712096 -13.572773 -6.118241 16.793787 10.187980 0.250427 0.019064 -0.018228 -10.433207 20.196372 -11.207406 2.297914 -23.765309 2.545926 7.822062 0.544893 10.753483 4.553615 -2.668661 -0.394770 
-56.078381 58.186768 80.534966 -5.364846 0.113096 -105.857127 -1.936892 -4.473588 0.666745 -0.847049 -1.995531 0.277207 -0.847049 -1.995530 0.277210 -0.634317 -1.497037 0.205117 4.082744 -21.341291 -5.741679 5.743390 -3.372283 -9.228434 8.514150 4.611237 -3.257014 47.174894 -20.040216 -10.615929 7.368065 -53.936170 54.231859 -27.321667 38.559273 68.201843 -6.522988 3.213616 -5.784214 -43.116133 -7.408521 10.914988 -42.924863 -56.829114 -19.409716 18.022443 17.304165 -58.692403 0.774122 6.987305 -7.574544 10.281934 -26.721426 -13.198909 -6.113402 16.297019 10.192183 0.232555 0.006071 -0.013651 -10.664068 19.926139 -11.156317 1.946304 -22.248409 2.181790 7.287683 0.144443 10.860727 4.681201 -2.664345 -0.392885 
-55.962772 58.213936 80.705338 -5.342536 0.126213 -105.961595 -1.937699 -4.459564 0.676625 -0.852341 -1.988060 0.282411 -0.852341 -1.988060 0.282413 -0.638273 -1.491443 0.209015 4.081218 -21.304899 -5.732007 5.741740 -3.304846 -9.210913 8.516349 4.615723 -3.268557 47.184357 -20.086425 -10.636480 7.570070 -53.856769 54.070458 -27.319684 38.520833 68.195471 -6.519160 3.236533 -5.795635 -43.109610 -7.418047 10.939712 -42.942977 -56.812731 -19.416235 17.991024 17.266898 -58.643021 0.863632 6.461967 -7.599687 9.973370 -25.701655 -12.828903 -6.111217 15.797002 10.202927 0.228750 -0.005416 -0.006435 -10.878259 19.602289 -11.058659 1.696311 -20.664201 1.751862 6.727279 -0.289752 10.807846 4.732321 -2.655015 -0.389178 
-55.833344 58.235855 80.868660 -5.337369 0.135136 -106.068801 -1.942794 -4.456582 0.686164 -0.854304 -1.985097 0.287035 -0.854304 -1.985097 0.287037 -0.639731 -1.489228 0.212478 4.080579 -21.267718 -5.726260 5.740526 -3.235912 -9.200236 8.515228 4.607547 -3.279273 47.183551 -20.122265 -10.641962 7.799898 -53.749566 53.889667 -27.292317 38.463657 68.213147 -6.525200 3.247935 -5.813493 -43.099296 -7.409813 10.951279 -42.989412 -56.813503 -19.376589 17.964798 17.251342 -58.611486 0.969644 5.920087 -7.646726 9.642824 -24.696870 -12.479901 -6.087988 15.318987 10.148877 0.223703 -0.016305 -0.005389 -11.064235 19.219058 -10.974088 1.463583 -19.070127 1.334953 6.176058 -0.700224 10.770594 4.724902 -2.651099 -0.388875 
-55.704479 58.232948 81.021820 -5.337755 0.126716 -106.186376 -1.932023 -4.463479 0.686417 -0.852014 -1.989401 0.286661 -0.852014 -1.989401 0.286660 -0.638013 -1.492456 0.212200 4.070050 -21.221845 -5.713772 5.722962 -3.151244 -9.180119 8.509287 4.617052 -3.247313 47.184859 -20.113847 -10.682710 7.951228 -53.687247 53.774520 -27.277795 38.431374 68.225216 -6.546375 3.279081 -5.792914 -43.097042 -7.442933 10.956007 -43.000528 -56.819261 -19.364729 17.952548 17.255698 -58.602415 1.096952 5.373056 -7.705651 9.319102 -23.718305 -12.129756 -6.075769 14.849577 10.214329 0.223332 -0.016513 0.004996 -11.201850 18.794973 -10.888669 1.247505 -17.503985 0.933658 5.588392 -1.046220 10.679072 4.702511 -2.654506 -0.387000 
-55.565094 58.224152 81.164589 -5.345343 0.126787 -106.300502 -1.933897 -4.482647 0.686699 -0.852268 -1.999423 0.288098 -0.852268 -1.999423 0.288097 -0.638194 -1.499974 0.213263 4.063629 -21.165706 -5.706450 5.710880 -3.047391 -9.168060 8.520019 4.617554 -3.220274 47.182195 -20.083399 -10.721235 8.046795 -53.603758 53.710675 -27.256061 38.392131 68.238364 -6.547801 3.269127 -5.812336 -43.112994 -7.448180 10.947011 -42.978962 -56.791882 -19.384794 17.943689 17.275840 -58.623951 1.219600 4.832006 -7.800475 8.997009 -22.775700 -11.766837 -6.062251 14.402460 10.244845 0.218147 -0.013242 0.006548 -11.311963 18.361459 -10.814285 0.973901 -15.955774 0.628883 5.022166 -1.395309 10.572547 4.670559 -2.628290 -0.383926 
-55.428913 58.203178 81.297165 -5.343819 0.142164 -106.408186 -1.948245 -4.493585 0.678142 -0.857489 -2.010122 0.285789 -0.857489 -2.010122 0.285790 -0.642111 -1.507997 0.211500 4.063037 -21.106948 -5.697538 5.709728 -2.938430 -9.151402 8.534164 4.611238 -3.208441 47.193356 -20.083707 -10.739503 8.103494 -53.496535 53.670920 -27.240347 38.356689 68.246048 -6.519737 3.242186 -5.821815 -43.142135 -7.457741 10.919667 -42.948551 -56.772720 -19.422162 17.936700 17.307703 -58.641443 1.316777 4.322915 -7.889342 8.705317 -21.884064 -11.412865 -6.058594 13.982266 10.315776 0.220524 -0.007632 0.018796 -11.425665 17.939014 -10.831535 0.641792 -14.420607 0.502906 4.454658 -1.778992 10.311948 4.645878 -2.567770 -0.382084 
-55.278675 58.176506 81.421127 -5.351604 0.171362 -106.495948 -1.975305 -4.515867 0.661860 -0.867196 -2.019362 0.281330 -0.867196 -2.019362 0.281328 -0.649400 -1.514925 0.208108 4.071628 -21.050303 -5.695772 5.723246 -2.833035 -9.145033 8.550109 4.611621 -3.218516 47.205637 -20.085773 -10.731643 8.187996 -53.392262 53.597840 -27.233289 38.323580 68.237476 -6.490068 3.207625 -5.869182 -43.142876 -7.463977 10.898301 -42.961046 -56.741223 -19.449292 17.942480 17.342523 -58.644708 1.415034 3.809572 -7.985670 8.419441 -21.008656 -11.069261 -6.066902 13.585525 10.317879 0.225148 -0.002846 0.022130 -11.540048 17.502420 -10.926315 0.268267 -12.902045 0.425695 3.864437 -2.216573 9.926019 4.621963 -2.468049 -0.376411 
-55.119835 58.123898 81.536179 -5.360194 0.194832 -106.570704 -1.992784 -4.534198 0.634709 -0.876490 -2.024401 0.273187 -0.876490 -2.024401 0.273189 -0.656394 -1.518697 0.201967 4.076881 -21.003409 -5.695810 5.730635 -2.745871 -9.143030 8.557798 4.631667 -3.239220 47.223627 -20.067299 -10.745815 8.263696 -53.340301 53.523968 -27.207343 38.270223 68.230386 -6.476100 3.190983 -5.898486 -43.109832 -7.501642 10.882682 -43.017768 -56.706167 -19.451580 17.938104 17.377528 -58.637980 1.537342 3.282550 -8.120262 8.108392 -20.149295 -10.695623 -6.094845 13.208902 10.359886 0.251120 0.006000 0.035804 -11.658013 17.067075 -11.039302 -0.092529 -11.464608 0.333896 3.344015 -2.600174 9.658096 4.541011 -2.384624 -0.369078 
